<svg xmlns="http://www.w3.org/2000/svg" width="465.06" height="465.06" viewBox="0 0 465.06 465.06">
  <g id="그룹_222" data-name="그룹 222" transform="translate(-46.81 -77.449)">
    <path id="패스_64" data-name="패스 64" d="M232.53,0C360.952,0,465.06,104.107,465.06,232.53S360.952,465.06,232.53,465.06,0,360.952,0,232.53,104.107,0,232.53,0Z" transform="translate(46.81 77.449)" fill="#4f5d6d"/>
    <g id="그룹_221" data-name="그룹 221" transform="translate(140.846 184.303)">
      <g id="LINE" transform="translate(92.328 205.179)">
        <line id="선_105" data-name="선 105" y1="46.173" fill="none" stroke="#fff" stroke-linecap="round" stroke-linejoin="round" stroke-width="3"/>
      </g>
      <g id="ARC" transform="translate(92.329 189.794)">
        <path id="패스_51" data-name="패스 51" d="M113.307,149.685a15.39,15.39,0,0,0-30.779,0" transform="translate(-82.528 -134.303)" fill="none" stroke="#fff" stroke-linecap="round" stroke-linejoin="round" stroke-width="3"/>
      </g>
      <g id="LINE-2" data-name="LINE" transform="translate(123.107 205.179)">
        <line id="선_106" data-name="선 106" y2="46.173" fill="none" stroke="#fff" stroke-linecap="round" stroke-linejoin="round" stroke-width="3"/>
      </g>
      <g id="LINE-3" data-name="LINE" transform="translate(0 205.179)">
        <line id="선_107" data-name="선 107" y1="46.173" fill="none" stroke="#fff" stroke-linecap="round" stroke-linejoin="round" stroke-width="3"/>
      </g>
      <g id="ARC-2" data-name="ARC" transform="translate(0.002 189.794)">
        <path id="패스_52" data-name="패스 52" d="M95.612,149.685a15.39,15.39,0,0,0-30.779,0" transform="translate(-64.833 -134.303)" fill="none" stroke="#fff" stroke-linecap="round" stroke-linejoin="round" stroke-width="3"/>
      </g>
      <g id="LINE-4" data-name="LINE" transform="translate(61.552 205.179)">
        <line id="선_108" data-name="선 108" y1="46.173" fill="none" stroke="#fff" stroke-linecap="round" stroke-linejoin="round" stroke-width="3"/>
      </g>
      <g id="ARC-3" data-name="ARC" transform="translate(30.781 189.794)">
        <path id="패스_53" data-name="패스 53" d="M101.5,149.685a15.384,15.384,0,0,0-30.769,0" transform="translate(-70.732 -134.303)" fill="none" stroke="#fff" stroke-linecap="round" stroke-linejoin="round" stroke-width="3"/>
      </g>
      <g id="LINE-5" data-name="LINE" transform="translate(30.779 205.179)">
        <line id="선_109" data-name="선 109" y2="46.173" fill="none" stroke="#fff" stroke-linecap="round" stroke-linejoin="round" stroke-width="3"/>
      </g>
      <g id="LINE-6" data-name="LINE" transform="translate(76.94 189.794)">
        <line id="선_110" data-name="선 110" y2="61.558" fill="none" stroke="#fff" stroke-linecap="round" stroke-linejoin="round" stroke-width="3"/>
      </g>
      <g id="ARC-4" data-name="ARC" transform="translate(184.666 189.794)">
        <path id="패스_54" data-name="패스 54" d="M130.989,149.685a15.382,15.382,0,1,0-30.764,0" transform="translate(-100.225 -134.303)" fill="none" stroke="#fff" stroke-linecap="round" stroke-linejoin="round" stroke-width="3"/>
      </g>
      <g id="ARC-5" data-name="ARC" transform="translate(184.666 205.176)">
        <path id="패스_55" data-name="패스 55" d="M100.225,137.251a15.4,15.4,0,0,0,15.392,15.4" transform="translate(-100.225 -137.251)" fill="none" stroke="#fff" stroke-linecap="round" stroke-linejoin="round" stroke-width="3"/>
      </g>
      <g id="ARC-6" data-name="ARC" transform="translate(200.059 220.573)">
        <path id="패스_56" data-name="패스 56" d="M118.546,155.584A15.367,15.367,0,0,0,103.175,140.2" transform="translate(-103.175 -140.202)" fill="none" stroke="#fff" stroke-linecap="round" stroke-linejoin="round" stroke-width="3"/>
      </g>
      <g id="ARC-7" data-name="ARC" transform="translate(184.666 235.955)">
        <path id="패스_57" data-name="패스 57" d="M100.225,143.15a15.382,15.382,0,1,0,30.764,0" transform="translate(-100.225 -143.15)" fill="none" stroke="#fff" stroke-linecap="round" stroke-linejoin="round" stroke-width="3"/>
      </g>
      <g id="LINE-7" data-name="LINE" transform="translate(246.22 189.794)">
        <line id="선_111" data-name="선 111" y2="46.161" fill="none" stroke="#fff" stroke-linecap="round" stroke-linejoin="round" stroke-width="3"/>
      </g>
      <g id="ARC-8" data-name="ARC" transform="translate(246.22 235.955)">
        <path id="패스_58" data-name="패스 58" d="M112.022,143.15a15.4,15.4,0,0,0,15.4,15.4" transform="translate(-112.022 -143.15)" fill="none" stroke="#fff" stroke-linecap="round" stroke-linejoin="round" stroke-width="3"/>
      </g>
      <g id="LINE-8" data-name="LINE" transform="translate(261.617 251.352)">
        <line id="선_112" data-name="선 112" x2="15.37" fill="none" stroke="#fff" stroke-linecap="round" stroke-linejoin="round" stroke-width="3"/>
      </g>
      <g id="LINE-9" data-name="LINE" transform="translate(230.826 189.794)">
        <line id="선_113" data-name="선 113" y2="61.558" fill="none" stroke="#fff" stroke-linecap="round" stroke-linejoin="round" stroke-width="3"/>
      </g>
      <g id="ARC-9" data-name="ARC" transform="translate(138.495 189.794)">
        <path id="패스_59" data-name="패스 59" d="M122.15,149.685a15.387,15.387,0,0,0-30.774,0" transform="translate(-91.376 -134.303)" fill="none" stroke="#fff" stroke-linecap="round" stroke-linejoin="round" stroke-width="3"/>
      </g>
      <g id="LINE-10" data-name="LINE" transform="translate(138.496 205.179)">
        <line id="선_114" data-name="선 114" y2="30.777" fill="none" stroke="#fff" stroke-linecap="round" stroke-linejoin="round" stroke-width="3"/>
      </g>
      <g id="ARC-10" data-name="ARC" transform="translate(138.495 235.955)">
        <path id="패스_60" data-name="패스 60" d="M91.376,143.15a15.387,15.387,0,1,0,30.774,0" transform="translate(-91.376 -143.15)" fill="none" stroke="#fff" stroke-linecap="round" stroke-linejoin="round" stroke-width="3"/>
      </g>
      <g id="LWPOLYLINE" transform="translate(153.872 220.575)">
        <path id="패스_61" data-name="패스 61" d="M109.719,155.583V140.2h-15.4" transform="translate(-94.323 -140.202)" fill="none" stroke="#fff" stroke-linecap="round" stroke-linejoin="round" stroke-width="3"/>
      </g>
      <g id="ARC-11" data-name="ARC" transform="translate(57.052 112.849)">
        <path id="패스_62" data-name="패스 62" d="M75.767,119.556a94.033,94.033,0,0,0,162.886,0" transform="translate(-75.767 -119.556)" fill="none" stroke="#fff" stroke-linecap="round" stroke-linejoin="round" stroke-width="3"/>
      </g>
      <g id="LINE-11" data-name="LINE" transform="translate(138.496)">
        <line id="선_115" data-name="선 115" y2="94.038" fill="none" stroke="#fff" stroke-linecap="round" stroke-linejoin="round" stroke-width="3"/>
      </g>
      <g id="LWPOLYLINE-2" data-name="LWPOLYLINE" transform="translate(169.84 15.673)">
        <path id="패스_63" data-name="패스 63" d="M97.383,163.622l31.36-62.69,31.336,62.69" transform="translate(-97.383 -100.932)" fill="none" stroke="#fff" stroke-linecap="round" stroke-linejoin="round" stroke-width="3"/>
      </g>
      <g id="LWPOLYLINE-3" data-name="LWPOLYLINE" transform="translate(44.457 15.673)">
        <rect id="사각형_349" data-name="사각형 349" width="62.69" height="62.69" fill="none" stroke="#fff" stroke-linecap="round" stroke-linejoin="round" stroke-width="3"/>
      </g>
    </g>
  </g>
</svg>
